<svg width="24" height="19" viewBox="0 0 24 19" fill="none" xmlns="http://www.w3.org/2000/svg">
<path d="M4.5005 7.7499H7.4995V6.2499H4.5005V7.7499Z" fill="black" fill-opacity="0.8"/>
<path fill-rule="evenodd" clip-rule="evenodd" d="M14.2214 15.2499C17.1209 15.2499 19.4714 12.8994 19.4714 9.9999C19.4714 7.10041 17.1209 4.7499 14.2214 4.7499C11.322 4.7499 8.97145 7.10041 8.97145 9.9999C8.97145 12.8994 11.322 15.2499 14.2214 15.2499ZM14.2214 13.7499C12.1504 13.7499 10.4714 12.071 10.4714 9.9999C10.4714 7.92883 12.1504 6.2499 14.2214 6.2499C16.2925 6.2499 17.9714 7.92883 17.9714 9.9999C17.9714 12.071 16.2925 13.7499 14.2214 13.7499Z" fill="black" fill-opacity="0.8"/>
<path fill-rule="evenodd" clip-rule="evenodd" d="M18.4039 0.979248L19.9009 3.2499H23.25V15.9999C23.25 17.2425 22.2426 18.2499 21 18.2499H3C1.75736 18.2499 0.75 17.2425 0.75 15.9999V5.4999C0.75 4.25726 1.75736 3.2499 3 3.2499H8.59688L10.0989 0.979248H18.4039ZM17.5961 2.47925H10.9051L9.40312 4.7499H3C2.58579 4.7499 2.25 5.08569 2.25 5.4999V15.9999C2.25 16.4141 2.58579 16.7499 3 16.7499H21C21.4142 16.7499 21.75 16.4141 21.75 15.9999V4.7499H19.0931L17.5961 2.47925Z" fill="black" fill-opacity="0.8"/>
</svg>
